<?xml version="1.0" standalone="no"?>
<!DOCTYPE svg PUBLIC "-//W3C//DTD SVG 20010904//EN"
 "http://www.w3.org/TR/2001/REC-SVG-20010904/DTD/svg10.dtd">
<svg version="1.0" xmlns="http://www.w3.org/2000/svg"
 width="1098.000000pt" height="1098.000000pt" viewBox="0 0 1098.000000 1098.000000"
 preserveAspectRatio="xMidYMid meet">
<metadata>
Created by potrace 1.14, written by Peter Selinger 2001-2017
</metadata>
<g transform="translate(0.000000,1098.000000) scale(0.100000,-0.100000)"
fill="#000000" stroke="none">
<path d="M4867 9814 c-1 -1 -67 -4 -147 -8 -80 -4 -161 -9 -180 -11 -19 -3
-57 -7 -86 -10 -138 -13 -363 -55 -539 -101 -96 -24 -307 -89 -340 -103 -11
-5 -60 -23 -110 -41 -49 -18 -114 -43 -143 -56 -29 -13 -54 -24 -56 -24 -6 0
-190 -86 -266 -125 -86 -43 -158 -82 -270 -147 -50 -29 -102 -58 -113 -65 -27
-15 -282 -189 -327 -223 -532 -406 -962 -949 -1206 -1522 -59 -138 -130 -346
-164 -479 -25 -96 -24 -90 -50 -229 -26 -140 -29 -156 -35 -220 -4 -30 -8 -66
-10 -80 -22 -128 -22 -639 0 -772 2 -13 6 -52 9 -88 4 -36 8 -77 11 -90 3 -14
7 -45 10 -70 3 -25 7 -52 10 -60 2 -8 7 -35 10 -60 4 -25 13 -79 22 -120 8
-41 17 -86 19 -100 11 -62 88 -342 125 -458 180 -554 485 -1107 843 -1527 91
-107 359 -369 469 -461 407 -335 899 -599 1397 -748 141 -42 381 -99 465 -110
11 -2 38 -6 60 -9 57 -9 124 -18 165 -22 237 -24 732 -24 905 0 40 5 171 25
215 31 318 48 703 172 1035 334 472 229 798 472 1285 960 353 352 577 625 830
1005 143 215 342 579 422 770 9 22 28 69 43 105 15 36 31 74 36 85 35 81 136
409 155 499 2 11 12 63 23 115 11 53 23 123 27 156 3 33 8 62 9 65 6 11 18
186 19 275 1 236 -48 462 -130 602 -85 146 -265 229 -429 199 -69 -12 -85 -17
-143 -48 -94 -50 -174 -113 -280 -218 -185 -182 -344 -412 -677 -975 -65 -110
-125 -212 -134 -227 -178 -301 -398 -626 -520 -768 -136 -159 -271 -268 -413
-335 -121 -57 -211 -63 -305 -20 -141 64 -236 154 -451 430 -32 41 -251 375
-347 530 -356 572 -499 710 -668 646 -105 -40 -213 -222 -400 -676 -119 -288
-211 -488 -286 -620 -53 -92 -77 -132 -96 -160 -166 -244 -338 -392 -525 -450
-154 -47 -422 -12 -577 76 -200 114 -277 395 -217 797 35 241 205 791 341
1102 8 19 19 44 23 55 15 37 64 149 121 275 43 96 295 600 352 705 114 210
137 252 245 440 139 243 161 274 267 380 60 60 99 89 155 116 104 50 124 57
212 73 295 51 605 -81 808 -344 19 -25 40 -51 47 -58 7 -7 92 -120 190 -250
392 -524 502 -654 627 -741 243 -169 450 -84 772 317 346 433 596 895 658
1217 54 280 42 528 -36 725 -116 293 -418 548 -819 691 -90 32 -278 87 -357
104 -9 2 -59 13 -111 24 -83 18 -224 44 -301 56 -187 27 -226 32 -325 41 -38
3 -88 7 -110 9 -122 12 -727 27 -738 19z"/>
<path d="M10060 8993 c-294 -26 -583 -164 -800 -382 -100 -100 -169 -194 -223
-305 -53 -108 -72 -164 -90 -272 -57 -329 102 -597 425 -718 93 -35 179 -48
348 -50 376 -7 690 85 930 269 110 85 211 204 251 294 35 80 37 85 49 121 19
56 22 255 4 327 -68 291 -231 526 -433 627 -130 66 -316 101 -461 89z"/>
<path d="M935 3224 c-68 -10 -165 -35 -230 -59 -97 -36 -291 -141 -325 -175
-3 -3 -23 -18 -45 -35 -102 -76 -214 -214 -262 -323 -13 -31 -29 -66 -34 -77
-33 -69 -47 -308 -24 -409 28 -128 101 -253 214 -367 209 -208 428 -262 706
-173 159 51 360 199 504 369 100 120 209 316 256 465 33 105 42 264 20 350
-48 180 -182 319 -372 385 -37 13 -81 26 -98 29 -16 3 -41 8 -55 11 -34 8
-218 14 -255 9z"/>
<path d="M2100 2157 c-128 -44 -249 -146 -328 -278 -100 -166 -106 -406 -14
-529 89 -121 278 -213 401 -196 163 22 307 178 372 401 27 95 33 282 10 350
-41 123 -112 214 -197 251 -62 26 -167 27 -244 1z"/>
</g>
</svg>
